<?xml version="1.0" encoding="UTF-8"?>
<!DOCTYPE svg PUBLIC "-//W3C//DTD SVG 1.0//EN" "http://www.w3.org/TR/2001/REC-SVG-20010904/DTD/svg10.dtd">
<!-- Creator: CorelDRAW 2019 (64 Bit) -->
<svg xmlns="http://www.w3.org/2000/svg" xml:space="preserve" width="1116px" height="318px" version="1.0" style="shape-rendering:geometricPrecision; text-rendering:geometricPrecision; image-rendering:optimizeQuality; fill-rule:evenodd; clip-rule:evenodd"
viewBox="0 0 180.75 51.48"
 xmlns:xlink="http://www.w3.org/1999/xlink">
 <defs>
  <style type="text/css">
   <![CDATA[
    .str2 {stroke:#E9BF52;stroke-width:3.76;stroke-miterlimit:22.9256}
    .str1 {stroke:#E9BF52;stroke-width:3.76;stroke-linecap:round;stroke-linejoin:round;stroke-miterlimit:22.9256}
    .str0 {stroke:#FEFEFE;stroke-width:3.76;stroke-linecap:round;stroke-linejoin:round;stroke-miterlimit:22.9256}
    .fil1 {fill:none;fill-rule:nonzero}
    .fil0 {fill:#FEFEFE;fill-rule:nonzero}
   ]]>
  </style>
 </defs>
 <g id="Camada_x0020_1">
  <metadata id="CorelCorpID_0Corel-Layer"/>
  <g id="_2588641600976">
   <path class="fil0" d="M15.32 44.85c-2.71,0 -5.41,-0.5 -8.11,-1.49 -2.69,-1 -5.09,-2.49 -7.21,-4.49l5.34 -6.42c1.48,1.28 3.13,2.31 4.93,3.12 1.8,0.8 3.57,1.21 5.3,1.21 1.95,0 3.4,-0.36 4.36,-1.08 0.95,-0.72 1.43,-1.7 1.43,-2.93 0,-0.63 -0.14,-1.18 -0.41,-1.65 -0.28,-0.47 -0.68,-0.88 -1.21,-1.24 -0.53,-0.36 -1.17,-0.7 -1.91,-1.02 -0.74,-0.31 -1.56,-0.66 -2.45,-1.05l-5.4 -2.28c-1.06,-0.43 -2.09,-0.98 -3.08,-1.66 -1,-0.68 -1.89,-1.47 -2.67,-2.38 -0.79,-0.91 -1.41,-1.97 -1.88,-3.18 -0.46,-1.21 -0.7,-2.57 -0.7,-4.1 0,-1.69 0.36,-3.29 1.08,-4.8 0.72,-1.5 1.74,-2.82 3.05,-3.94 1.32,-1.12 2.88,-2 4.68,-2.64 1.8,-0.63 3.78,-0.95 5.94,-0.95 2.42,0 4.8,0.46 7.15,1.4 2.35,0.93 4.42,2.29 6.2,4.07l-4.77 5.91c-1.35,-1.06 -2.71,-1.88 -4.07,-2.45 -1.35,-0.57 -2.86,-0.86 -4.51,-0.86 -1.61,0 -2.89,0.33 -3.85,0.99 -0.95,0.65 -1.43,1.58 -1.43,2.76 0,0.64 0.16,1.18 0.48,1.62 0.32,0.45 0.76,0.85 1.34,1.21 0.57,0.36 1.24,0.7 2,1.02 0.76,0.32 1.59,0.67 2.48,1.05l5.34 2.16c2.54,1.02 4.54,2.41 6,4.19 1.47,1.78 2.2,4.14 2.2,7.06 0,1.74 -0.35,3.38 -1.05,4.93 -0.7,1.54 -1.72,2.9 -3.05,4.06 -1.34,1.17 -2.98,2.1 -4.93,2.8 -1.95,0.7 -4.15,1.05 -6.61,1.05l0 0z"/>
   <path id="_1" class="fil0" d="M45.2 44.85c-1.44,0 -2.75,-0.24 -3.91,-0.73 -1.17,-0.49 -2.15,-1.17 -2.96,-2.04 -0.8,-0.86 -1.43,-1.87 -1.87,-3.01 -0.45,-1.15 -0.67,-2.4 -0.67,-3.75 0,-3.31 1.4,-5.9 4.19,-7.76 2.8,-1.86 7.31,-3.11 13.54,-3.75 -0.08,-1.4 -0.49,-2.51 -1.24,-3.34 -0.74,-0.82 -1.98,-1.24 -3.71,-1.24 -1.36,0 -2.71,0.26 -4.04,0.77 -1.34,0.5 -2.77,1.2 -4.29,2.09l-3.37 -6.16c2.03,-1.23 4.16,-2.23 6.39,-2.99 2.22,-0.76 4.58,-1.14 7.09,-1.14 4.06,0 7.17,1.15 9.31,3.46 2.14,2.31 3.21,5.9 3.21,10.77l0 18.06 -7.63 0 -0.64 -3.24 -0.25 0c-1.36,1.18 -2.78,2.15 -4.26,2.89 -1.48,0.74 -3.11,1.11 -4.89,1.11l0 0zm3.18 -7.25c1.06,0 1.97,-0.23 2.73,-0.7 0.76,-0.46 1.57,-1.12 2.41,-1.97l0 -5.53c-3.3,0.47 -5.59,1.15 -6.86,2.04 -1.27,0.89 -1.91,1.95 -1.91,3.18 0,1.01 0.33,1.76 0.99,2.25 0.65,0.49 1.53,0.73 2.64,0.73z"/>
   <path id="_2" class="fil0" d="M78 44.09l-10.62 -31.53 9.41 0 4.07 14.87c0.42,1.57 0.83,3.17 1.24,4.8 0.4,1.63 0.81,3.28 1.24,4.93l0.25 0c0.38,-1.65 0.78,-3.3 1.18,-4.93 0.4,-1.63 0.81,-3.23 1.24,-4.8l4.13 -14.87 8.96 0 -10.3 31.53 -10.8 0z"/>
   <path id="_3" class="fil0" d="M117.6 44.85c-2.25,0 -4.34,-0.37 -6.29,-1.11 -1.95,-0.74 -3.65,-1.82 -5.09,-3.24 -1.44,-1.42 -2.56,-3.15 -3.37,-5.19 -0.8,-2.03 -1.21,-4.36 -1.21,-6.99 0,-2.54 0.43,-4.84 1.28,-6.89 0.84,-2.06 1.96,-3.8 3.33,-5.22 1.38,-1.42 2.96,-2.51 4.74,-3.27 1.78,-0.76 3.62,-1.15 5.53,-1.15 2.25,0 4.21,0.39 5.88,1.15 1.67,0.76 3.07,1.82 4.19,3.18 1.13,1.35 1.96,2.95 2.52,4.8 0.55,1.84 0.82,3.84 0.82,6 0,0.85 -0.04,1.66 -0.13,2.42 -0.08,0.76 -0.16,1.33 -0.25,1.72l-18.88 0c0.42,2.28 1.37,3.97 2.83,5.05 1.46,1.08 3.25,1.62 5.37,1.62 2.25,0 4.51,-0.7 6.8,-2.1l3.12 5.66c-1.61,1.1 -3.4,1.97 -5.37,2.61 -1.97,0.63 -3.91,0.95 -5.82,0.95l0 0zm-6.99 -19.96l11.38 0c0,-1.78 -0.41,-3.22 -1.21,-4.32 -0.81,-1.1 -2.16,-1.66 -4.07,-1.66 -1.48,0 -2.79,0.49 -3.91,1.47 -1.12,0.97 -1.85,2.48 -2.19,4.51l0 0z"/>
   <g id="_1510927542704">
    <path class="fil1 str0" d="M166.01 9.6l12.86 0 0 33.33 -15 0c-1.71,0 -3.34,0.7 -4.55,1.95 -1.2,1.25 -1.88,2.95 -1.88,4.72 0,-1.77 -0.68,-3.47 -1.88,-4.72 -1.21,-1.25 -2.84,-1.95 -4.55,-1.95l-15 0 0 -33.33 12.86 0"/>
    <g>
     <path class="fil1 str1" d="M169.51 29.01l-4.24 -3.86c-1.54,0 3.42,-13.56 -7.97,-23.27 -11.39,9.71 -6.44,23.27 -7.98,23.27l-4.24 3.86 0.76 5.97 6.36 -2.18c1.16,0 0.34,3.21 1.16,4.06 0.77,0.8 3.35,0.69 3.94,0.66 0.58,0.03 3.17,0.14 3.94,-0.66 0.82,-0.85 0,-4.06 1.15,-4.06l6.36 2.18 0.76 -5.97 0 0z"/>
     <circle class="fil1 str2" cx="157.66" cy="16.64" r="2.99"/>
    </g>
   </g>
  </g>
 </g>
</svg>
